<?xml version="1.0" encoding="UTF-8" standalone="no"?>
<svg xmlns="http://www.w3.org/2000/svg" width="100" height="100" viewBox="0 0 100 100">
  <path d="M50,0 C77.614,0 100,22.386 100,50 C100,77.614 77.614,100 50,100 C22.386,100 0,77.614 0,50 C0,22.386 22.386,0 50,0 Z M50,10 C27.909,10 10,27.909 10,50 C10,72.091 27.909,90 50,90 C72.091,90 90,72.091 90,50 C90,27.909 72.091,10 50,10 Z" fill="#0066cc" fill-opacity="0.1"/>
  <path d="M40,30 L60,50 L40,70" fill="none" stroke="#0066cc" stroke-width="5" stroke-linecap="round" stroke-linejoin="round"/>
</svg>
