<?xml version="1.0" encoding="UTF-8" standalone="no"?>
<svg xmlns="http://www.w3.org/2000/svg" width="100" height="100" viewBox="0 0 100 100">
  <path d="M50,10 C70,10 85,25 85,45 C85,65 70,80 50,80 C30,80 15,65 15,45 C15,25 30,10 50,10 Z" fill="#0066cc" fill-opacity="0.1"/>
  <path d="M50,20 C65,20 75,30 75,45 C75,60 65,70 50,70 C35,70 25,60 25,45 C25,30 35,20 50,20 Z" fill="#0066cc" fill-opacity="0.2"/>
  <path d="M50,30 C60,30 65,35 65,45 C65,55 60,60 50,60 C40,60 35,55 35,45 C35,35 40,30 50,30 Z" fill="#0066cc" fill-opacity="0.3"/>
  <path d="M50,40 C55,40 55,40 55,45 C55,50 55,50 50,50 C45,50 45,50 45,45 C45,40 45,40 50,40 Z" fill="#0066cc"/>
  <path d="M50,80 L50,100 L45,90 L40,100 L35,90 L30,100 L25,90 L20,100 L15,90 L10,100 L5,90 L0,100 L0,80 Z" fill="#0066cc" fill-opacity="0.2"/>
  <path d="M50,80 L50,100 L55,90 L60,100 L65,90 L70,100 L75,90 L80,100 L85,90 L90,100 L95,90 L100,100 L100,80 Z" fill="#0066cc" fill-opacity="0.2"/>
</svg>
