<?xml version="1.0" encoding="UTF-8" standalone="no"?>
<svg xmlns="http://www.w3.org/2000/svg" width="100" height="100" viewBox="0 0 100 100">
  <path d="M50,0 C77.614,0 100,22.386 100,50 C100,77.614 77.614,100 50,100 C22.386,100 0,77.614 0,50 C0,22.386 22.386,0 50,0 Z M50,10 C27.909,10 10,27.909 10,50 C10,72.091 27.909,90 50,90 C72.091,90 90,72.091 90,50 C90,27.909 72.091,10 50,10 Z" fill="#0066cc" fill-opacity="0.1"/>
  <path d="M30,30 L70,30 L70,70 L30,70 Z" fill="none" stroke="#0066cc" stroke-width="3" stroke-linecap="round" stroke-linejoin="round"/>
  <path d="M30,40 L70,40" fill="none" stroke="#0066cc" stroke-width="2" stroke-linecap="round" stroke-linejoin="round"/>
  <path d="M30,50 L70,50" fill="none" stroke="#0066cc" stroke-width="2" stroke-linecap="round" stroke-linejoin="round"/>
  <path d="M30,60 L70,60" fill="none" stroke="#0066cc" stroke-width="2" stroke-linecap="round" stroke-linejoin="round"/>
  <path d="M40,30 L40,70" fill="none" stroke="#0066cc" stroke-width="2" stroke-linecap="round" stroke-linejoin="round"/>
  <path d="M50,30 L50,70" fill="none" stroke="#0066cc" stroke-width="2" stroke-linecap="round" stroke-linejoin="round"/>
  <path d="M60,30 L60,70" fill="none" stroke="#0066cc" stroke-width="2" stroke-linecap="round" stroke-linejoin="round"/>
  <circle cx="35" cy="35" r="2" fill="#0066cc"/>
  <circle cx="45" cy="55" r="2" fill="#0066cc"/>
  <circle cx="55" cy="45" r="2" fill="#0066cc"/>
  <circle cx="65" cy="65" r="2" fill="#0066cc"/>
</svg>
