<?xml version="1.0" encoding="UTF-8" standalone="no"?>
<svg xmlns="http://www.w3.org/2000/svg" width="200" height="200" viewBox="0 0 200 200">
  <path d="M100,0 C155.228,0 200,44.772 200,100 C200,155.228 155.228,200 100,200 C44.772,200 0,155.228 0,100 C0,44.772 44.772,0 100,0 Z M100,20 C55.817,20 20,55.817 20,100 C20,144.183 55.817,180 100,180 C144.183,180 180,144.183 180,100 C180,55.817 144.183,20 100,20 Z" fill="#0066cc" fill-opacity="0.1"/>
  <path d="M100,40 C133.137,40 160,66.863 160,100 C160,133.137 133.137,160 100,160 C66.863,160 40,133.137 40,100 C40,66.863 66.863,40 100,40 Z M100,60 C77.909,60 60,77.909 60,100 C60,122.091 77.909,140 100,140 C122.091,140 140,122.091 140,100 C140,77.909 122.091,60 100,60 Z" fill="#0066cc" fill-opacity="0.2"/>
  <path d="M100,80 C111.046,80 120,88.954 120,100 C120,111.046 111.046,120 100,120 C88.954,120 80,111.046 80,100 C80,88.954 88.954,80 100,80 Z" fill="#0066cc" fill-opacity="0.3"/>
  <path d="M95,140 L105,140 L105,180 L95,180 Z" fill="#0066cc" fill-opacity="0.3"/>
  <path d="M140,95 L180,95 L180,105 L140,105 Z" fill="#0066cc" fill-opacity="0.3"/>
  <path d="M20,95 L60,95 L60,105 L20,105 Z" fill="#0066cc" fill-opacity="0.3"/>
  <path d="M95,20 L105,20 L105,60 L95,60 Z" fill="#0066cc" fill-opacity="0.3"/>
</svg>
